<svg width="166" height="142" viewBox="0 0 166 142" fill="none" xmlns="http://www.w3.org/2000/svg">
<path d="M53.5071 9.549C53.5071 12.133 55.3091 13.204 57.0601 13.204C58.8111 13.204 60.6301 12.15 60.6301 9.549V0.997999H55.9211V2.46H58.9471V9.532C58.9471 11.113 58.0121 11.657 57.0771 11.657C56.1251 11.657 55.1731 11.096 55.1731 9.464V8.954H53.5071V9.549ZM63.3009 9.906C63.3009 12.184 64.3039 13.204 66.2419 13.204C67.9249 13.204 69.0469 12.082 69.4039 11.232H69.4379C69.4379 11.232 69.4039 11.504 69.4039 11.861V13H71.0019V4.398H69.3529V8.427C69.3529 10.127 68.3159 11.674 66.5649 11.674C65.1879 11.674 64.9499 10.722 64.9499 9.532V4.398H63.3009V9.906ZM73.5801 13H75.2291V8.971C75.2291 8.546 75.2631 8.155 75.3651 7.815C75.7221 6.574 76.7761 5.707 78.0851 5.707C79.4621 5.707 79.7171 6.659 79.7171 7.866V13H81.3661V7.492C81.3661 5.299 80.4311 4.194 78.4081 4.194C76.5381 4.194 75.5181 5.418 75.1781 6.166H75.1441C75.1441 6.166 75.1781 5.877 75.1781 5.537V4.398H73.5801V13ZM84.1463 6.149H85.8803V4.398H84.1463V6.149ZM84.1463 13H85.8803V11.249H84.1463V13ZM92.8133 13H99.7153V11.538H97.0973V0.997999H95.6013L92.7283 3.786L93.7483 4.84L94.8703 3.735C95.3123 3.31 95.4483 3.038 95.4483 3.038H95.4823C95.4823 3.038 95.4653 3.412 95.4653 3.786V11.538H92.8133V13ZM101.199 13H108.934V11.538H102.984C103.018 8.801 108.747 8.189 108.747 4.245C108.747 2.171 107.166 0.793999 104.956 0.793999C102.253 0.793999 101.165 3.072 101.165 3.072L102.406 3.905C102.406 3.905 103.256 2.375 104.837 2.375C106.095 2.375 106.996 3.174 106.996 4.364C106.996 7.186 101.114 7.798 101.114 12.082C101.114 12.371 101.148 12.677 101.199 13Z" fill="#131313"/>
<path d="M108.629 141H112.607C116.279 141 118.693 138.79 118.693 134.982C118.693 131.191 116.279 128.998 112.607 128.998H108.629V141ZM110.312 139.538V130.46H112.488C115.174 130.46 116.959 132.041 116.959 134.982C116.959 137.94 115.191 139.538 112.488 139.538H110.312ZM120.278 136.699C120.278 139.249 122.131 141.204 124.834 141.204C126.891 141.204 128.166 139.98 128.166 139.98L127.486 138.773C127.486 138.773 126.415 139.776 124.936 139.776C123.406 139.776 122.063 138.824 121.978 136.937H128.251C128.251 136.937 128.302 136.444 128.302 136.223C128.302 133.996 127.01 132.194 124.579 132.194C122.131 132.194 120.278 133.962 120.278 136.699ZM122.029 135.696C122.267 134.285 123.287 133.503 124.545 133.503C125.65 133.503 126.568 134.217 126.619 135.696H122.029ZM129.691 136.699C129.691 139.283 131.595 141.204 134.298 141.204C136.542 141.204 137.732 139.827 137.732 139.827L137.069 138.62C137.069 138.62 136.015 139.776 134.417 139.776C132.632 139.776 131.374 138.433 131.374 136.682C131.374 134.914 132.632 133.622 134.366 133.622C135.828 133.622 136.746 134.608 136.746 134.608L137.528 133.452C137.528 133.452 136.457 132.194 134.298 132.194C131.595 132.194 129.691 134.149 129.691 136.699ZM139.923 134.149H141.657V132.398H139.923V134.149ZM139.923 141H141.657V139.249H139.923V141ZM148.59 141H155.492V139.538H152.874V128.998H151.378L148.505 131.786L149.525 132.84L150.647 131.735C151.089 131.31 151.225 131.038 151.225 131.038H151.259C151.259 131.038 151.242 131.412 151.242 131.786V139.538H148.59V141ZM161.259 141.204C164.472 141.204 165.509 138.45 165.509 134.982C165.509 131.531 164.472 128.794 161.259 128.794C158.063 128.794 157.026 131.531 157.026 134.982C157.026 138.45 158.063 141.204 161.259 141.204ZM161.259 139.657C159.304 139.657 158.743 137.6 158.743 134.982C158.743 132.381 159.304 130.341 161.259 130.341C163.231 130.341 163.792 132.381 163.792 134.982C163.792 137.6 163.231 139.657 161.259 139.657Z" fill="#131313"/>
<path d="M2 97.52C2 97.52 7.20002 82.23 13.374 78.206C19.548 74.182 21.9577 81.3709 29.4688 79.4939C36.9798 77.6169 31.1321 74.3439 41.0581 71.1249C50.9841 67.9059 57.8502 76.275 68.7412 67.584C79.6322 58.893 72.4968 32.738 82.9048 40.223C93.3128 47.708 88.6448 67.423 102.218 84.967C115.791 102.511 135.696 109.109 135.696 109.109L148.996 102.886" stroke="#FFD230" stroke-width="3"/>
<path d="M80.9971 45.5C84.5869 45.5 87.4971 42.5899 87.4971 39C87.4971 35.4101 84.5869 32.5 80.9971 32.5C77.4072 32.5 74.4971 35.4101 74.4971 39C74.4971 42.5899 77.4072 45.5 80.9971 45.5Z" stroke="#EDB900" stroke-width="3"/>
<path d="M134.997 115.5C138.587 115.5 141.497 112.59 141.497 109C141.497 105.41 138.587 102.5 134.997 102.5C131.407 102.5 128.497 105.41 128.497 109C128.497 112.59 131.407 115.5 134.997 115.5Z" stroke="#EDB900" stroke-width="3"/>
</svg>
