<svg width="57" height="52" viewBox="0 0 57 52" fill="none" xmlns="http://www.w3.org/2000/svg">
<path d="M43.3199 24.88L41.3599 33.24C39.6799 40.46 36.3599 43.38 30.1199 42.78C29.1199 42.7 28.0399 42.52 26.8799 42.24L23.5199 41.44C15.1799 39.46 12.5999 35.34 14.5599 26.98L16.5199 18.6C16.9199 16.9 17.3999 15.42 17.9999 14.2C20.3399 9.35999 24.3199 8.05999 30.9999 9.63999L34.3399 10.42" stroke="#118CF2" stroke-width="2.5" stroke-linecap="round" stroke-linejoin="round"/>
<path d="M30.1202 42.78C28.8802 43.62 27.3202 44.32 25.4202 44.94L22.2602 45.98C14.3202 48.54 10.1402 46.4 7.56019 38.46L5.00019 30.56C2.44019 22.62 4.56019 18.42 12.5002 15.86L15.6602 14.82C16.4802 14.56 17.2602 14.34 18.0002 14.2C17.4002 15.42 16.9202 16.9 16.5202 18.6L14.5602 26.98C12.6002 35.34 15.1802 39.46 23.5202 41.44L26.8802 42.24C28.0402 42.52 29.1202 42.7 30.1202 42.78Z" stroke="#118CF2" stroke-width="2.5" stroke-linecap="round" stroke-linejoin="round"/>
<path d="M25.2798 21.06L34.9798 23.52" stroke="#118CF2" stroke-width="2.5" stroke-linecap="round" stroke-linejoin="round"/>
<path d="M23.3198 28.8L29.1198 30.28" stroke="#118CF2" stroke-width="2.5" stroke-linecap="round" stroke-linejoin="round"/>
<path d="M38.7755 21.2136C38.9352 21.4384 39.1605 21.6082 39.4206 21.6998C39.6806 21.7915 39.9626 21.8004 40.2279 21.7254C40.4666 21.6563 40.6817 21.5228 40.8487 21.3391L42.0538 19.7639C42.3463 19.385 42.7231 19.0795 43.1543 18.8716C43.5855 18.6637 44.0593 18.5592 44.5379 18.5664L46.4469 18.607C46.7231 18.6062 46.9924 18.5197 47.2174 18.3595C47.4424 18.1993 47.6122 17.9732 47.7034 17.7124C47.7945 17.4516 47.8025 17.169 47.7262 16.9035C47.65 16.638 47.4932 16.4026 47.2776 16.23L45.728 15.0565C45.3505 14.7642 45.0459 14.3883 44.8382 13.9584C44.6304 13.5285 44.5252 13.0563 44.5308 12.5789L44.5729 10.6715C44.5723 10.3952 44.4857 10.126 44.3252 9.90113C44.1629 9.67845 43.9366 9.51048 43.6765 9.41958C43.4164 9.32867 43.1347 9.31914 42.8691 9.39225C42.5985 9.47005 42.3593 9.63108 42.1855 9.8525L41.0175 11.3866C40.729 11.7529 40.3612 12.049 39.9418 12.2527C39.5224 12.4564 39.0622 12.5623 38.596 12.5625L36.6897 12.5203C36.412 12.521 36.1414 12.6082 35.9157 12.7699C35.6899 12.9316 35.5202 13.1597 35.4301 13.4223C35.3401 13.685 35.3342 13.9692 35.4133 14.2354C35.4923 14.5016 35.6525 14.7365 35.8713 14.9074L37.3722 16.049C37.751 16.3428 38.0563 16.7206 38.264 17.1526C38.4717 17.5846 38.5761 18.0589 38.569 18.5382L38.5284 20.4429C38.5288 20.719 38.6148 20.9885 38.7755 21.2136Z" fill="#FFCF4C"/>
</svg>
