<svg width="28" height="28" viewBox="0 0 28 28" fill="none" xmlns="http://www.w3.org/2000/svg">
<path d="M3.69873 8.68002L14.0004 14.6417L24.232 8.71499" stroke="white" stroke-width="1.5" stroke-linecap="round" stroke-linejoin="round"/>
<path d="M14.0005 25.2117V14.63" stroke="white" stroke-width="1.5" stroke-linecap="round" stroke-linejoin="round"/>
<path d="M11.5852 2.89334L5.35522 6.35838C3.94355 7.14005 2.78857 9.10002 2.78857 10.71V17.3017C2.78857 18.9117 3.94355 20.8717 5.35522 21.6534L11.5852 25.1184C12.9152 25.8534 15.0969 25.8534 16.4269 25.1184L22.6569 21.6534C24.0686 20.8717 25.2236 18.9117 25.2236 17.3017V10.71C25.2236 9.10002 24.0686 7.14005 22.6569 6.35838L16.4269 2.89334C15.0852 2.14668 12.9152 2.14668 11.5852 2.89334Z" stroke="white" stroke-width="1.5" stroke-linecap="round" stroke-linejoin="round"/>
<path d="M19.8334 15.4466V11.1767L8.76172 4.78329" stroke="white" stroke-width="1.5" stroke-linecap="round" stroke-linejoin="round"/>
</svg>
