<svg width="32" height="32" viewBox="0 0 32 32" fill="none" xmlns="http://www.w3.org/2000/svg">
<path d="M5.31907 19.548L3.29207 17.521C2.89507 17.1201 2.67236 16.5787 2.67236 16.0145C2.67236 15.4503 2.89507 14.9089 3.29207 14.508L5.31907 12.481C5.69349 12.0647 5.91467 11.5331 5.94607 10.974V8.108C5.94765 7.54269 6.17285 7.00097 6.5725 6.60113C6.97214 6.2013 7.51376 5.97585 8.07907 5.974H10.9451C11.504 5.94288 12.0356 5.72205 12.4521 5.348L14.4791 3.321C14.88 2.924 15.4214 2.70129 15.9856 2.70129C16.5498 2.70129 17.0912 2.924 17.4921 3.321L19.5191 5.348C19.9354 5.72242 20.467 5.9436 21.0261 5.975H23.8921C24.4572 5.97684 24.9987 6.20216 25.3983 6.60178C25.7979 7.00139 26.0232 7.54286 26.0251 8.108V10.974C26.0565 11.5331 26.2777 12.0647 26.6521 12.481L28.6791 14.508C29.0761 14.9089 29.2988 15.4503 29.2988 16.0145C29.2988 16.5787 29.0761 17.1201 28.6791 17.521L26.6521 19.548C26.2777 19.9643 26.0565 20.4959 26.0251 21.055V23.921C26.0232 24.4861 25.7979 25.0276 25.3983 25.4272C24.9987 25.8268 24.4572 26.0522 23.8921 26.054H21.0251C20.466 26.0854 19.9344 26.3066 19.5181 26.681L17.4921 28.708C17.0912 29.105 16.5498 29.3277 15.9856 29.3277C15.4214 29.3277 14.88 29.105 14.4791 28.708L12.4521 26.681C12.0357 26.3066 11.5041 26.0854 10.9451 26.054H8.07907C7.51376 26.0524 6.97203 25.8272 6.5722 25.4276C6.17237 25.0279 5.94692 24.4863 5.94507 23.921V21.054C5.9186 20.4943 5.69713 19.9615 5.31907 19.548V19.548Z" stroke="#118CF2" stroke-width="2" stroke-linecap="round" stroke-linejoin="round"/>
<path d="M12 20L20 12" stroke="#118CF2" stroke-width="2" stroke-linecap="round" stroke-linejoin="round"/>
<path d="M19.3271 19.333H19.3381" stroke="#118CF2" stroke-width="2" stroke-linecap="round" stroke-linejoin="round"/>
<path d="M12.6602 12.667H12.6712" stroke="#118CF2" stroke-width="2" stroke-linecap="round" stroke-linejoin="round"/>
</svg>
