<svg width="28" height="28" viewBox="0 0 28 28" fill="none" xmlns="http://www.w3.org/2000/svg">
<path d="M10.1172 16.7181C10.1172 18.2231 11.2722 19.4365 12.7072 19.4365H15.6355C16.8839 19.4365 17.8989 18.3748 17.8989 17.0681C17.8989 15.6448 17.2805 15.1431 16.3589 14.8165L11.6572 13.1831C10.7355 12.8565 10.1172 12.3548 10.1172 10.9315C10.1172 9.62481 11.1322 8.56314 12.3805 8.56314H15.3089C16.7439 8.56314 17.8989 9.77647 17.8989 11.2815" stroke="white" stroke-width="1.5" stroke-linecap="round" stroke-linejoin="round"/>
<path d="M14 7V21" stroke="white" stroke-width="1.5" stroke-linecap="round" stroke-linejoin="round"/>
<path d="M14.0002 25.6667C20.4435 25.6667 25.6668 20.4433 25.6668 14C25.6668 7.55669 20.4435 2.33334 14.0002 2.33334C7.55684 2.33334 2.3335 7.55669 2.3335 14C2.3335 20.4433 7.55684 25.6667 14.0002 25.6667Z" stroke="white" stroke-width="1.5" stroke-linecap="round" stroke-linejoin="round"/>
</svg>
