<svg width="32" height="32" viewBox="0 0 32 32" fill="none" xmlns="http://www.w3.org/2000/svg">
<path d="M28.8801 13.92L27.5734 19.4933C26.4534 24.3067 24.2401 26.2533 20.0801 25.8533C19.4134 25.8 18.6934 25.68 17.9201 25.4933L15.6801 24.96C10.1201 23.64 8.40008 20.8933 9.70674 15.32L11.0134 9.73333C11.2801 8.6 11.6001 7.61333 12.0001 6.8C13.5601 3.57333 16.2134 2.70667 20.6667 3.76L22.8934 4.28C28.4801 5.58667 30.1867 8.34667 28.8801 13.92Z" stroke="#110011" stroke-width="2" stroke-linecap="round" stroke-linejoin="round"/>
<path d="M20.08 25.8533C19.2533 26.4133 18.2133 26.88 16.9466 27.2933L14.84 27.9867C9.54663 29.6933 6.75997 28.2667 5.03997 22.9733L3.3333 17.7067C1.62663 12.4133 3.03997 9.61333 8.3333 7.90667L10.44 7.21333C10.9866 7.04 11.5066 6.89333 12 6.8C11.6 7.61333 11.28 8.6 11.0133 9.73333L9.70663 15.32C8.39997 20.8933 10.12 23.64 15.68 24.96L17.92 25.4933C18.6933 25.68 19.4133 25.8 20.08 25.8533Z" stroke="#110011" stroke-width="2" stroke-linecap="round" stroke-linejoin="round"/>
<path d="M16.8535 11.3733L23.3202 13.0133" stroke="#110011" stroke-width="2" stroke-linecap="round" stroke-linejoin="round"/>
<path d="M15.5469 16.5333L19.4135 17.52" stroke="#110011" stroke-width="2" stroke-linecap="round" stroke-linejoin="round"/>
</svg>
