<svg width="28" height="28" viewBox="0 0 28 28" fill="none" xmlns="http://www.w3.org/2000/svg">
<path d="M25.6665 6.99999V9.82333C25.6665 11.6667 24.4998 12.8333 22.6565 12.8333H18.6665V4.67833C18.6665 3.38333 19.7282 2.33333 21.0232 2.33333C22.2948 2.34499 23.4615 2.85833 24.3015 3.69833C25.1415 4.54999 25.6665 5.71666 25.6665 6.99999Z" stroke="white" stroke-width="1.5" stroke-miterlimit="10" stroke-linecap="round" stroke-linejoin="round"/>
<path d="M2.3335 8.16666V24.5C2.3335 25.4683 3.43016 26.0167 4.20016 25.4333L6.19516 23.94C6.66183 23.59 7.31516 23.6367 7.73516 24.0567L9.67183 26.005C10.1268 26.46 10.8735 26.46 11.3285 26.005L13.2885 24.045C13.6968 23.6367 14.3502 23.59 14.8052 23.94L16.8002 25.4333C17.5702 26.005 18.6668 25.4567 18.6668 24.5V4.66666C18.6668 3.38333 19.7168 2.33333 21.0002 2.33333H8.16683H7.00016C3.50016 2.33333 2.3335 4.42166 2.3335 6.99999V8.16666Z" stroke="white" stroke-width="1.5" stroke-miterlimit="10" stroke-linecap="round" stroke-linejoin="round"/>
<path d="M10.5 15.1783H14" stroke="white" stroke-width="1.5" stroke-linecap="round" stroke-linejoin="round"/>
<path d="M10.5 10.5117H14" stroke="white" stroke-width="1.5" stroke-linecap="round" stroke-linejoin="round"/>
<path d="M6.99512 15.1667H7.0056" stroke="white" stroke-width="1.5" stroke-linecap="round" stroke-linejoin="round"/>
<path d="M6.99512 10.5H7.0056" stroke="white" stroke-width="1.5" stroke-linecap="round" stroke-linejoin="round"/>
</svg>
