<svg width="22" height="22" viewBox="0 0 22 22" fill="none" xmlns="http://www.w3.org/2000/svg">
<path d="M-nan -nanL19.2502 10.5416C19.2502 12.264 18.7394 13.9477 17.7825 15.3797C16.8257 16.8118 15.4656 17.928 13.8744 18.5871C12.2831 19.2462 10.5322 19.4187 8.84292 19.0827C7.15367 18.7466 5.60199 17.9173 4.38411 16.6994C3.16623 15.4815 2.33684 13.9298 2.00083 12.2406C1.66482 10.5513 1.83727 8.80035 2.49638 7.20911C3.1555 5.61787 4.27166 4.25782 5.70374 3.30093C7.13582 2.34405 8.81949 1.83331 10.5418 1.83331C12.8514 1.83331 15.0664 2.7508 16.6996 4.38392C18.3327 6.01705 19.2502 8.23205 19.2502 10.5416L-nan -nanL-nan -nanZ" stroke="#8A8A8A" stroke-width="1.5" stroke-linecap="round" stroke-linejoin="round"/>
<path d="M20.1668 20.1666L18.3335 18.3333" stroke="#8A8A8A" stroke-width="1.5" stroke-linecap="round" stroke-linejoin="round"/>
</svg>
