<svg width="20" height="20" viewBox="0 0 20 20" fill="none" xmlns="http://www.w3.org/2000/svg">
<path fill-rule="evenodd" clip-rule="evenodd" d="M10 3.33333C5.57092 3.33333 2.08333 6.6012 2.08333 10H1.25C1.25 6.035 5.22433 2.5 10 2.5C14.7757 2.5 18.75 6.035 18.75 10H17.9167C17.9167 6.6012 14.4291 3.33333 10 3.33333Z" fill="#110011" stroke="#110011" stroke-width="0.2"/>
<path fill-rule="evenodd" clip-rule="evenodd" d="M3.75 8.74996C2.73796 8.74996 2.08333 9.39154 2.08333 9.99996H1.25C1.25 8.76738 2.46086 7.91663 3.75 7.91663C5.03914 7.91663 6.25 8.76738 6.25 9.99996H5.41667C5.41667 9.39154 4.76204 8.74996 3.75 8.74996Z" fill="#110011" stroke="#110011" stroke-width="0.2"/>
<path fill-rule="evenodd" clip-rule="evenodd" d="M7.9165 8.74996C6.90446 8.74996 6.24984 9.39154 6.24984 9.99996H5.4165C5.4165 8.76738 6.62736 7.91663 7.9165 7.91663C9.20567 7.91663 10.4165 8.76738 10.4165 9.99996H9.58317C9.58317 9.39154 8.92859 8.74996 7.9165 8.74996Z" fill="#110011" stroke="#110011" stroke-width="0.2"/>
<path fill-rule="evenodd" clip-rule="evenodd" d="M12.0835 8.74996C11.0714 8.74996 10.4168 9.39154 10.4168 9.99996H9.5835C9.5835 8.76738 10.7943 7.91663 12.0835 7.91663C13.3727 7.91663 14.5835 8.76738 14.5835 9.99996H13.7502C13.7502 9.39154 13.0956 8.74996 12.0835 8.74996Z" fill="#110011" stroke="#110011" stroke-width="0.2"/>
<path fill-rule="evenodd" clip-rule="evenodd" d="M16.25 8.74996C15.2379 8.74996 14.5833 9.39154 14.5833 9.99996H13.75C13.75 8.76738 14.9608 7.91663 16.25 7.91663C17.5392 7.91663 18.75 8.76738 18.75 9.99996H17.9167C17.9167 9.39154 17.2621 8.74996 16.25 8.74996Z" fill="#110011" stroke="#110011" stroke-width="0.2"/>
<path fill-rule="evenodd" clip-rule="evenodd" d="M10.4168 1.66663V2.49996H9.5835V1.66663H10.4168Z" fill="#110011" stroke="#110011" stroke-width="0.2"/>
<path fill-rule="evenodd" clip-rule="evenodd" d="M9.58333 16.6666V9.16663H10.4167V16.6666C10.4167 17.8172 9.48392 18.75 8.33333 18.75C7.18274 18.75 6.25 17.8172 6.25 16.6666V15.8333H7.08333V16.6666C7.08333 17.357 7.64298 17.9166 8.33333 17.9166C9.02367 17.9166 9.58333 17.357 9.58333 16.6666Z" fill="#110011" stroke="#110011" stroke-width="0.2"/>
</svg>
